<?xml version="1.0" encoding="UTF-8" standalone="no"?>
<svg
   width="1024"
   height="1024"
   viewBox="0 0 1024 1024"
   version="1.1"
   shape-rendering="geometricPrecision"
   aria-labelledby="title"
   id="svg1"
   sodipodi:docname="UniTrackLogo.svg"
   xmlns:inkscape="http://www.inkscape.org/namespaces/inkscape"
   xmlns:sodipodi="http://sodipodi.sourceforge.net/DTD/sodipodi-0.dtd"
   xmlns="http://www.w3.org/2000/svg"
   xmlns:svg="http://www.w3.org/2000/svg">
  <defs
     id="defs1" />
  <sodipodi:namedview
     id="namedview1"
     pagecolor="#ffffff"
     bordercolor="#000000"
     borderopacity="0.25"
     inkscape:showpageshadow="2"
     inkscape:pageopacity="0.0"
     inkscape:pagecheckerboard="0"
     inkscape:deskcolor="#d1d1d1" />
  <title
     id="title">UniTrack logo — single color</title>
  <!-- single-color, smooth rendering -->
  <path
     d="M 188 405.866 C 168.475 415.624, 140.350 429.659, 125.500 437.054 C 101.907 448.803, 98.376 450.862, 97.514 453.371 C 96.630 455.946, 96.859 456.515, 99.726 458.871 C 101.485 460.317, 112.215 466.187, 123.570 471.916 L 144.216 482.331 143.979 511.416 C 143.849 527.412, 143.800 541.286, 143.871 542.247 C 144.255 547.448, 161.044 559.985, 176.230 566.411 C 193.050 573.528, 216.472 577.841, 230.986 576.493 C 252.277 574.516, 275.743 566.724, 287.944 557.581 C 292.932 553.843, 294 554.194, 294 559.570 C 294 563.032, 293.258 565.218, 290.938 568.590 C 289.254 571.038, 286.441 576.069, 284.688 579.770 C 281.926 585.600, 281.455 587.785, 281.161 596.114 C 280.876 604.180, 281.141 606.357, 282.810 609.628 C 290.148 624.012, 306.037 626.243, 315.932 614.279 C 319.250 610.268, 322 602.675, 322 597.529 C 322 590.219, 317.208 577.207, 311.114 567.966 L 308.168 563.500 307.443 522.869 L 306.717 482.239 328.109 471.505 C 339.874 465.601, 350.512 459.844, 351.750 458.711 C 354.625 456.079, 354.614 452.926, 351.720 450.207 C 350.466 449.029, 326.504 436.790, 298.470 423.009 C 270.437 409.227, 243.098 395.713, 237.717 392.976 C 232.337 390.239, 226.937 388.028, 225.717 388.062 C 224.498 388.096, 207.525 396.108, 188 405.866 M 196.500 416.258 C 180.550 424.068, 156.493 435.908, 143.039 442.570 L 118.578 454.682 133.539 462.257 C 141.768 466.423, 165.375 478.418, 186 488.914 C 206.625 499.409, 224.332 507.997, 225.348 507.998 C 226.365 507.999, 238.145 502.382, 251.527 495.516 L 275.858 483.033 265.679 477.654 C 231.067 459.364, 229.685 458.715, 227.829 459.875 C 222.206 463.387, 211 458.130, 211 451.981 C 211 447.112, 214.153 445.500, 223.675 445.500 L 232.140 445.500 261.357 460.385 C 282.099 470.952, 291.144 475.078, 292.537 474.608 C 293.617 474.244, 303.274 469.502, 313.999 464.070 L 333.497 454.195 327.999 451.712 C 324.974 450.346, 300.713 438.602, 274.083 425.614 C 247.454 412.626, 225.629 402.013, 225.583 402.029 C 225.538 402.046, 212.450 408.449, 196.500 416.258 M 859 505.539 L 859 559.078 867.750 558.789 L 876.500 558.500 876.783 547.217 C 876.997 538.691, 877.452 535.481, 878.647 534.081 C 885.260 526.326, 887.170 525.424, 887.810 529.756 C 887.981 530.910, 888.768 532.393, 889.560 533.050 C 890.352 533.707, 891 534.865, 891 535.622 C 891 536.380, 891.441 537, 891.981 537 C 892.520 537, 893.244 538.125, 893.589 539.500 C 893.934 540.875, 894.519 542, 894.889 542 C 895.259 542, 896.094 543.237, 896.744 544.750 C 897.995 547.657, 900.100 551.164, 901.096 552 C 901.423 552.275, 902.328 553.850, 903.107 555.500 L 904.522 558.500 914.761 558.785 C 920.393 558.942, 925 558.800, 925 558.469 C 925 557.456, 922.761 553.618, 921.342 552.199 C 920.604 551.461, 920 550.214, 920 549.429 C 920 548.643, 919.663 547.997, 919.250 547.994 C 918.546 547.988, 916.987 545.641, 912.940 538.500 C 910.821 534.760, 904.411 524.869, 903.169 523.423 C 902.661 522.831, 901.934 521.368, 901.555 520.173 C 901.176 518.978, 900.498 518, 900.049 518 C 898.392 518, 898.258 514.009, 899.853 512.183 C 901.843 509.903, 915.042 495.274, 920.238 489.590 C 922.293 487.340, 923.981 485.163, 923.988 484.750 C 923.994 484.337, 919.275 484, 913.500 484 C 907.725 484, 903 484.381, 903 484.847 C 903 485.313, 902.061 486.775, 900.913 488.097 C 899.765 489.419, 897.104 492.525, 895 495 C 890.079 500.787, 887.442 503.841, 884.429 507.241 C 883.093 508.749, 882 510.404, 882 510.920 C 882 511.435, 881.294 512.563, 880.431 513.427 C 879.211 514.646, 878.408 514.754, 876.830 513.909 C 875.156 513.013, 874.931 512.267, 875.553 509.661 C 875.967 507.922, 876.476 494.238, 876.684 479.250 L 877.062 452 868.031 452 L 859 452 859 505.539 M 379.430 456.323 C 379.133 457.095, 379.029 475.226, 379.198 496.613 C 379.473 531.406, 379.689 535.816, 381.247 538.500 C 382.204 540.150, 382.990 541.870, 382.994 542.321 C 382.997 542.773, 383.563 543.723, 384.250 544.432 C 384.938 545.141, 386.709 547.099, 388.188 548.782 C 396.436 558.175, 414.433 562.382, 429.540 558.448 C 440.387 555.624, 447.450 550.148, 452.691 540.500 L 455.407 535.500 456.066 496 C 456.428 474.275, 456.407 456.143, 456.019 455.707 C 455.631 455.271, 451.545 455.046, 446.938 455.207 L 438.563 455.500 438.531 492.786 C 438.509 518.777, 438.167 530.287, 437.400 530.786 C 436.795 531.178, 435.750 532.543, 435.079 533.817 C 434.407 535.092, 431.777 537.454, 429.233 539.067 C 425.395 541.501, 423.550 542, 418.387 542 C 408.374 542, 398.799 536.568, 397.398 530.093 C 397.090 528.667, 396.390 526.311, 395.842 524.858 C 394.989 522.593, 395.190 493.360, 396.275 462 L 396.500 455.500 388.234 455.209 C 381.859 454.985, 379.845 455.240, 379.430 456.323 M 578.489 456.018 C 577.510 457.603, 578.173 469.344, 579.325 470.817 C 580.091 471.796, 583.579 472.097, 592.928 471.990 C 599.843 471.910, 606.063 471.880, 606.750 471.923 C 607.730 471.983, 608 481.408, 608 515.500 L 608 559 616.342 559 L 624.683 559 624.252 515.500 L 623.821 472 637.804 472 C 653.895 472, 653 472.594, 653 461.918 L 653 455 616.059 455 C 592.080 455, 578.897 455.357, 578.489 456.018 M 502.722 484.375 C 500.644 485.150, 497.749 486.978, 496.290 488.438 C 494.748 489.979, 492.769 490.967, 491.568 490.796 C 489.880 490.554, 489.560 489.903, 489.825 487.250 L 490.151 484 481.075 484 L 472 484 472 521.539 L 472 559.078 480.750 558.789 L 489.500 558.500 489.623 533.138 C 489.697 517.864, 490.135 507.522, 490.723 507.138 C 491.261 506.787, 492.210 505.531, 492.833 504.347 C 494.680 500.838, 502.371 497.669, 507.609 498.259 C 512.644 498.827, 515.138 500.663, 517.429 505.492 C 518.727 508.228, 519 513.160, 519 533.901 L 519 559 527.500 559 L 536 559 536 530.559 C 536 514.916, 535.601 501.871, 535.113 501.570 C 534.626 501.269, 533.930 499.442, 533.568 497.511 C 533.206 495.580, 532.592 493.997, 532.205 493.994 C 531.817 493.990, 530.750 492.668, 529.832 491.056 C 526.224 484.714, 511.524 481.091, 502.722 484.375 M 684.299 484.960 C 682.538 486.033, 680.405 488.250, 679.560 489.885 C 676.720 495.375, 670.974 494.828, 673.088 489.268 C 675.004 484.230, 674.650 484, 665 484 L 656 484 656 521.500 L 656 559 664.500 559 L 673 559 673 538.059 C 673 525.177, 673.385 516.880, 674 516.500 C 674.550 516.160, 675 515.076, 675 514.091 C 675 511.374, 680.717 504.058, 683.738 502.909 C 685.208 502.351, 689.018 501.881, 692.205 501.866 L 698 501.838 698 492.419 L 698 483 692.750 483.004 C 689.308 483.006, 686.397 483.680, 684.299 484.960 M 727.500 483.938 C 720.116 485.744, 710 493.677, 710 497.661 C 710 498.398, 709.550 499, 709 499 C 708.450 499, 708 500.800, 708 503 L 708 507 716.052 507 C 724.069 507, 724.109 506.987, 725.132 504.050 C 726.246 500.857, 732.737 497, 737 497 C 740.880 497, 747.375 500.746, 749.250 504.064 C 751.293 507.680, 751.611 513.999, 749.750 514.002 C 749.063 514.004, 742.464 514.465, 735.086 515.028 C 717.684 516.356, 712.218 518.741, 706.588 527.461 C 703.551 532.167, 703.973 543.413, 707.391 548.827 C 714.475 560.049, 732.689 563.332, 744.258 555.471 C 749.199 552.113, 751 552.255, 751 556 L 751 559 759.500 559 L 768 559 768 531.559 C 768 516.466, 767.601 503.871, 767.113 503.570 C 766.626 503.269, 765.932 501.453, 765.573 499.536 C 764.568 494.182, 756.606 486.554, 749.963 484.582 C 744.508 482.962, 732.858 482.628, 727.500 483.938 M 804.479 484.347 C 799.001 486.127, 795.269 488.586, 790.296 493.689 C 781.344 502.877, 778.118 516.773, 781.402 532 C 782.173 535.575, 783.587 540.075, 784.545 542 C 787.068 547.068, 794.012 553.368, 800.694 556.649 C 805.847 559.179, 807.569 559.499, 816 559.491 C 824.300 559.484, 826.220 559.136, 831.199 556.736 C 837.459 553.719, 844.469 546.458, 846.496 540.890 C 847.175 539.026, 848.064 536.712, 848.472 535.750 C 849.147 534.159, 848.404 534, 840.276 534 C 831.531 534, 831.308 534.059, 829.941 536.750 C 829.172 538.263, 827.184 540.719, 825.522 542.209 C 817.241 549.634, 799.030 541.460, 799.007 530.309 C 799.003 528.554, 798.550 526.840, 798 526.500 C 796.732 525.716, 796.692 517.538, 797.945 515.236 C 798.465 514.281, 799.161 511.813, 799.491 509.750 C 799.821 507.688, 800.490 506, 800.978 506 C 801.466 506, 802.141 505.130, 802.479 504.067 C 803.289 501.513, 810.695 498, 815.269 498 C 817.269 498, 820.165 498.536, 821.703 499.191 C 824.850 500.531, 829 503.927, 829 505.163 C 829 505.611, 829.775 506.882, 830.722 507.989 C 832.155 509.662, 833.668 510, 839.722 510 L 847 510 847 507.149 C 847 500.287, 838.974 490.178, 830 485.737 C 824.543 483.037, 810.812 482.289, 804.479 484.347 M 549.926 484.750 C 549.849 485.540, 549.875 554.237, 549.954 557.250 C 549.994 558.776, 551.089 559, 558.500 559 L 567 559 567 521.500 L 567 484 558.500 484 C 553.825 484, 549.967 484.337, 549.926 484.750 M 156.757 507.250 C 156.623 516.737, 156.511 527.588, 156.507 531.363 L 156.500 538.225 161.255 542.529 C 163.870 544.897, 170.620 549.106, 176.255 551.884 C 201.121 564.142, 226.686 566.858, 252.106 559.940 C 261.949 557.262, 282.328 547.135, 288.250 541.979 L 293 537.844 293 513.907 L 293 489.970 260.060 506.485 C 241.943 515.568, 226.128 523, 224.916 523 C 223.703 523, 208.196 515.575, 190.455 506.500 C 172.715 497.425, 157.930 490, 157.600 490 C 157.270 490, 156.891 497.762, 156.757 507.250 M 737.308 526.929 C 725.286 527.705, 722.500 529.506, 722.500 536.500 C 722.500 543.117, 725.631 545.500, 734.323 545.500 C 741.205 545.500, 746.490 542.827, 749.423 537.861 C 751.116 534.996, 751.601 527, 750.082 527 C 749.577 527, 748.564 526.850, 747.832 526.668 C 747.099 526.485, 742.364 526.602, 737.308 526.929 M 296.699 584.706 C 292.033 594.650, 291.612 601.702, 295.455 605.545 C 298.946 609.037, 304.138 608.905, 307.034 605.250 C 308.884 602.915, 309.142 601.591, 308.740 596.481 C 308.298 590.855, 305.437 583.532, 301.779 578.662 C 300.517 576.982, 300.080 577.502, 296.699 584.706"
     fill="#0B67B3"
     stroke="none"
     fill-rule="evenodd"
     stroke-linejoin="round"
     vector-effect="non-scaling-stroke"
     id="path1" />
</svg>
